<?xml version="1.0" standalone="no"?>
<!DOCTYPE svg PUBLIC "-//W3C//DTD SVG 20010904//EN"
 "http://www.w3.org/TR/2001/REC-SVG-20010904/DTD/svg10.dtd">
<svg version="1.0" xmlns="http://www.w3.org/2000/svg"
 width="2000.000000pt" height="2000.000000pt" viewBox="0 0 2000.000000 2000.000000"
 preserveAspectRatio="xMidYMid meet">

<g transform="translate(0.000000,2000.000000) scale(0.100000,-0.100000)"
fill="#000000" stroke="none">
<path d="M7560 15765 c-202 -57 -340 -250 -340 -474 0 -139 40 -246 128 -342
289 -314 792 -95 792 344 0 201 -126 388 -310 461 -62 25 -199 30 -270 11z
m213 -141 c68 -23 138 -91 173 -166 26 -57 29 -73 29 -168 0 -92 -3 -112 -26
-160 -33 -71 -79 -123 -138 -158 -40 -24 -56 -27 -131 -27 -69 0 -93 5 -127
23 -63 33 -112 87 -147 161 -28 60 -31 75 -31 161 0 83 4 103 28 155 42 90
118 162 197 186 43 13 124 10 173 -7z"/>
<path d="M8950 15766 c-162 -44 -301 -190 -339 -356 -15 -66 -13 -187 4 -255
53 -203 240 -355 437 -355 209 0 399 149 453 355 19 74 19 193 0 264 -32 123
-122 243 -227 304 -91 53 -227 71 -328 43z m203 -142 c26 -9 69 -36 96 -60
147 -132 156 -382 19 -530 -65 -71 -107 -89 -208 -89 -102 0 -142 18 -211 92
-65 69 -93 145 -93 253 0 103 26 176 85 243 87 99 196 131 312 91z"/>
<path d="M11447 15769 c-89 -21 -171 -81 -210 -154 -17 -32 -22 -57 -22 -126
0 -76 3 -90 27 -127 34 -51 89 -83 198 -117 47 -14 122 -38 168 -52 108 -33
152 -72 152 -131 0 -50 -35 -95 -86 -112 -22 -8 -72 -11 -128 -8 -102 6 -176
29 -256 83 l-50 33 -34 -64 -34 -64 26 -20 c134 -106 419 -143 570 -75 109 49
152 117 152 240 0 157 -64 215 -310 280 -143 38 -200 63 -224 97 -37 53 -5
147 59 174 82 34 244 9 332 -50 36 -25 39 -25 51 -9 27 35 53 95 48 108 -7 19
-141 81 -204 94 -62 13 -171 13 -225 0z"/>
<path d="M12450 15465 l0 -315 75 0 75 0 0 315 0 315 -75 0 -75 0 0 -315z"/>
<path d="M10040 15290 l0 -480 75 0 75 0 0 164 0 164 168 4 c157 3 170 5 218
30 103 54 155 141 162 270 4 76 1 92 -21 141 -33 72 -87 130 -150 161 -50 26
-54 26 -289 26 l-238 0 0 -480z m443 336 c114 -49 141 -207 52 -304 l-33 -37
-156 -3 -156 -3 0 180 0 181 130 0 c89 0 141 -4 163 -14z"/>
<path d="M12450 14900 l0 -90 75 0 75 0 0 90 0 90 -75 0 -75 0 0 -90z"/>
<path d="M9582 14135 c-450 -82 -790 -397 -952 -884 -113 -340 -138 -773 -69
-1185 122 -720 575 -1139 1229 -1139 352 0 628 108 850 333 189 191 323 476
379 806 67 400 45 833 -61 1162 -161 504 -502 827 -958 907 -103 18 -317 18
-418 0z m393 -649 c235 -116 365 -456 365 -956 0 -540 -146 -880 -412 -961
-90 -28 -224 -23 -311 10 -70 27 -164 111 -218 194 -110 169 -168 479 -156
837 12 374 93 636 242 786 100 101 188 136 328 130 77 -3 97 -8 162 -40z"/>
<path d="M5800 12973 l-750 -1128 0 -102 0 -103 768 -2 767 -3 3 -327 2 -328
330 0 330 0 0 330 0 330 180 0 180 0 0 310 0 310 -180 0 -180 0 0 920 0 920
-350 0 -351 0 -749 -1127z m788 -270 l-3 -438 -277 -3 c-153 -1 -278 0 -278 3
0 12 545 875 552 875 5 0 7 -197 6 -437z"/>
<path d="M12570 12975 l-750 -1125 0 -105 0 -105 765 0 765 0 0 -330 0 -330
335 0 335 0 0 330 0 330 180 0 180 0 0 310 0 310 -180 0 -180 0 0 920 0 920
-350 0 -350 0 -750 -1125z m780 -275 l0 -440 -275 0 c-151 0 -275 2 -275 5 0
7 542 875 547 875 1 0 3 -198 3 -440z"/>
<path d="M5010 10215 l0 -275 45 0 45 0 0 95 0 95 78 0 c104 0 143 13 185 60
59 64 63 162 10 229 -50 62 -80 71 -230 71 l-133 0 0 -275z m294 162 c13 -17
21 -43 21 -67 0 -24 -8 -50 -21 -67 -20 -27 -26 -28 -113 -31 l-91 -3 0 101 0
101 91 -3 c87 -3 93 -4 113 -31z"/>
<path d="M5777 10222 c-59 -148 -107 -272 -107 -276 0 -4 19 -6 42 -4 l42 3
29 73 29 72 108 0 107 0 28 -75 29 -75 43 0 c24 0 43 2 43 4 0 2 -47 124 -105
271 -58 147 -105 269 -105 271 0 2 -17 4 -38 4 l-39 0 -106 -268z m186 55 c20
-56 37 -108 37 -114 0 -10 -24 -13 -85 -13 -47 0 -85 3 -85 7 0 15 83 223 89
223 3 0 23 -46 44 -103z"/>
<path d="M6602 10469 c-201 -100 -200 -411 2 -505 84 -39 184 -27 243 28 l23
21 0 -36 c0 -36 1 -37 35 -37 l35 0 0 140 0 141 -92 -3 c-93 -3 -93 -3 -96
-30 -3 -26 -2 -27 55 -30 l58 -3 0 -34 c0 -29 -7 -40 -42 -67 -74 -57 -159
-54 -222 8 -45 44 -61 85 -61 155 1 178 171 264 288 147 l34 -34 29 21 c34 24
34 23 9 59 -53 74 -206 104 -298 59z"/>
<path d="M7300 10215 l0 -275 185 0 185 0 0 40 0 40 -145 0 -146 0 3 83 3 82
123 3 122 3 0 34 0 35 -125 0 -125 0 0 75 0 74 143 3 142 3 3 38 3 37 -185 0
-186 0 0 -275z"/>
<path d="M8480 10215 l0 -275 40 0 40 0 2 192 3 191 154 -191 c145 -179 157
-192 188 -192 l33 0 0 275 0 275 -40 0 -40 0 -2 -197 -3 -198 -155 197 c-144
183 -157 197 -187 198 l-33 0 0 -275z"/>
<path d="M9439 10462 c-68 -35 -124 -112 -140 -193 -22 -113 29 -234 126 -294
70 -43 164 -48 240 -11 121 60 180 196 141 329 -48 166 -221 245 -367 169z
m161 -52 c43 -12 93 -61 114 -112 62 -148 -65 -321 -202 -277 -170 54 -175
325 -7 384 49 17 51 17 95 5z"/>
<path d="M10092 10453 l3 -38 93 -3 92 -3 0 -234 0 -235 40 0 40 0 0 235 0
235 90 0 90 0 0 40 0 40 -226 0 -225 0 3 -37z"/>
<path d="M11310 10215 l0 -275 40 0 39 0 3 118 3 117 118 3 117 3 0 34 0 35
-120 0 -120 0 0 80 0 80 140 0 140 0 0 40 0 40 -180 0 -180 0 0 -275z"/>
<path d="M12122 10468 c-160 -78 -202 -304 -81 -442 53 -60 109 -86 187 -86
76 0 116 16 172 67 61 54 90 121 90 208 -1 111 -60 209 -154 254 -57 28 -155
28 -214 -1z m161 -62 c78 -28 120 -96 120 -191 0 -206 -237 -279 -324 -99 -55
116 -2 261 109 294 38 12 52 11 95 -4z"/>
<path d="M12842 10297 c3 -184 4 -195 29 -242 15 -30 42 -62 68 -80 40 -28 49
-30 135 -30 83 0 97 3 132 26 23 16 51 48 69 80 30 54 30 54 33 247 l4 192
-40 0 -39 0 -5 -173 c-4 -156 -6 -177 -28 -221 -44 -91 -154 -111 -225 -41
-44 45 -55 100 -55 285 l0 150 -41 0 -41 0 4 -193z"/>
<path d="M13690 10215 l0 -275 40 0 40 0 2 192 3 192 153 -192 c146 -182 156
-192 188 -192 l34 0 0 275 0 275 -40 0 -40 0 -2 -197 -3 -197 -155 196 c-144
183 -157 197 -187 198 l-33 0 0 -275z"/>
<path d="M14540 10215 l0 -275 118 0 c64 0 133 5 152 10 66 18 123 63 155 121
27 49 30 63 30 144 0 81 -3 95 -30 144 -57 102 -123 131 -307 131 l-118 0 0
-275z m299 166 c45 -33 71 -92 71 -166 0 -74 -26 -133 -71 -166 -29 -20 -48
-25 -126 -27 l-93 -4 0 197 0 197 93 -4 c78 -2 97 -7 126 -27z"/>
<path d="M10235 7718 c-13 -37 -265 -940 -265 -951 0 -10 199 -81 207 -73 3 2
255 679 318 853 l34 92 -137 45 c-153 51 -151 51 -157 34z"/>
<path d="M7403 7482 c-102 -33 -188 -119 -213 -212 -5 -19 -89 -498 -186
-1065 -97 -566 -177 -1031 -178 -1032 -1 -1 -342 56 -756 127 -415 71 -1414
242 -2218 380 -805 137 -1480 250 -1500 250 -94 -1 -150 -96 -107 -181 14 -27
13 -43 -16 -214 l-32 -185 -33 -10 c-34 -12 -88 -65 -98 -97 -3 -10 -17 -88
-32 -173 -30 -179 -29 -234 9 -284 31 -40 33 -46 12 -46 -21 0 -81 -56 -94
-87 -17 -44 -28 -135 -20 -172 8 -38 34 -76 70 -103 30 -23 535 -112 592 -105
21 3 54 17 73 32 32 25 40 26 95 20 32 -4 59 -8 59 -10 0 -1 -11 -28 -25 -60
-39 -86 -55 -169 -55 -280 0 -116 16 -190 64 -290 79 -167 207 -283 386 -351
69 -26 86 -28 220 -29 123 0 156 3 215 22 101 32 189 88 276 174 63 62 85 93
122 170 58 122 71 179 71 315 0 105 1 110 21 107 11 -3 802 -138 1757 -302
956 -163 1740 -300 1743 -303 3 -3 -6 -29 -20 -59 -42 -92 -58 -188 -52 -313
12 -254 155 -469 382 -577 l60 -29 -2888 0 c-2874 0 -2887 0 -2907 -20 -25
-25 -26 -62 -2 -83 17 -16 481 -17 6474 -17 6367 0 6455 0 6472 19 22 24 14
76 -14 91 -12 6 -309 10 -819 10 l-801 0 2 913 3 912 610 5 610 5 57 28 c68
33 121 90 156 166 36 78 36 185 0 262 -48 103 -1296 2254 -1332 2296 -20 23
-62 54 -94 70 -50 25 -68 28 -152 28 -86 0 -100 -3 -146 -29 -29 -15 -68 -44
-87 -65 -44 -44 -1323 -2254 -1350 -2331 -24 -68 -19 -164 11 -232 27 -62 95
-134 157 -166 l50 -27 613 -3 612 -3 0 -914 0 -915 -2382 0 -2383 1 79 41
c155 82 277 227 332 394 25 78 29 104 29 206 0 82 4 118 11 118 44 0 589 -101
592 -110 7 -21 55 -71 81 -85 15 -7 146 -34 292 -59 292 -50 317 -50 371 1 39
36 55 74 63 150 9 79 -6 123 -56 166 -58 50 -53 64 24 59 78 -5 123 14 141 61
8 18 28 119 46 224 32 193 32 193 13 230 -23 43 -73 73 -126 73 -34 0 -37 2
-33 23 36 167 36 260 1 335 -13 29 -130 184 -263 350 -131 163 -246 308 -255
322 -9 14 -192 486 -407 1050 -216 564 -403 1047 -418 1074 -29 53 -76 96
-137 126 -42 20 -1293 241 -1358 239 -18 0 -55 -8 -84 -17z m762 -177 c672
-115 674 -115 729 -188 15 -19 200 -489 428 -1088 l403 -1054 253 -315 c139
-173 260 -331 269 -350 35 -74 32 -106 -104 -897 -5 -27 -9 -32 -27 -28 -124
27 -445 74 -472 69 -19 -3 -53 -23 -75 -43 -35 -31 -44 -46 -54 -96 -7 -33
-16 -59 -21 -59 -5 1 -98 17 -206 34 l-197 33 -26 86 c-64 205 -184 365 -362
480 l-80 52 39 227 c21 125 83 486 137 802 55 316 116 675 137 796 l37 222
-168 445 c-211 562 -179 523 -476 573 -148 24 -171 26 -212 15 -55 -16 -118
-67 -141 -115 -26 -55 -519 -2950 -513 -3012 6 -59 23 -97 65 -142 l29 -31
-34 -48 c-19 -26 -38 -53 -41 -60 -6 -9 -397 54 -1582 257 -866 148 -1585 272
-1597 275 -14 3 -23 13 -23 23 0 26 -43 148 -70 202 -68 135 -189 267 -315
345 -346 216 -781 172 -1072 -108 -65 -63 -72 -67 -78 -47 -11 35 -64 88 -98
99 -18 5 -99 22 -182 36 -82 14 -162 28 -177 31 l-27 5 33 30 c19 16 38 41 44
56 16 41 62 312 62 367 0 69 -29 115 -103 161 -15 9 -14 25 11 167 15 86 30
159 33 162 5 5 380 -58 1369 -228 140 -24 919 -158 1731 -297 l1476 -252 39
19 c99 52 91 187 -13 231 -30 12 -34 17 -29 41 3 15 82 477 176 1027 94 550
176 1016 182 1035 31 99 147 178 243 164 17 -2 309 -51 650 -109z m5323 -211
c29 -14 63 -40 77 -58 13 -17 314 -535 670 -1150 439 -760 650 -1135 657
-1168 25 -107 -31 -219 -137 -273 l-59 -30 -1325 0 c-1471 0 -1354 -5 -1436
66 -78 69 -107 195 -66 284 30 65 1280 2227 1310 2265 67 87 206 116 309 64z
m-5150 -173 c171 -31 202 -43 226 -89 8 -15 84 -213 170 -440 l155 -413 -68
-402 c-38 -221 -72 -421 -76 -445 -7 -41 -8 -43 -36 -37 -45 10 -69 -2 -69
-35 0 -26 5 -31 41 -40 37 -10 40 -14 35 -38 -3 -15 -42 -243 -87 -507 -44
-264 -82 -485 -84 -491 -2 -8 -30 -3 -87 14 -73 22 -101 25 -228 25 -117 0
-160 -4 -224 -21 -106 -29 -225 -89 -313 -156 -40 -31 -77 -56 -82 -56 -16 0
-53 59 -62 98 -6 29 15 173 97 652 57 338 106 620 108 626 3 8 69 0 209 -24
171 -29 208 -33 221 -23 21 18 20 48 -2 60 -10 5 -107 25 -216 43 l-198 33 7
45 c38 258 269 1558 281 1581 14 27 79 68 109 69 6 0 83 -13 173 -29z m-3613
-1471 c1194 -204 2178 -373 2188 -376 40 -12 42 -72 3 -87 -18 -7 -4560 769
-4587 784 -25 13 -24 54 1 72 18 13 34 12 123 -4 56 -10 1079 -185 2272 -389z
m-2456 -195 c49 -25 52 -53 22 -230 -15 -88 -33 -170 -39 -181 -29 -53 -119
-48 -148 8 -14 28 -13 42 12 191 28 168 40 202 77 217 32 13 44 12 76 -5z m98
-626 c131 -22 249 -46 263 -52 33 -16 44 -53 35 -122 -8 -67 -38 -105 -81
-105 -15 0 -138 19 -273 42 -284 49 -297 55 -294 132 3 92 37 146 90 146 12 0
130 -18 260 -41z m11063 -1208 c0 -829 -2 -919 -16 -925 -24 -9 -63 -7 -85 4
-19 10 -19 31 -19 919 0 499 3 911 7 914 3 4 30 7 60 7 l53 0 0 -919z m-9900
788 c95 -43 150 -129 150 -235 0 -224 -266 -336 -428 -181 -128 123 -98 333
60 411 66 33 152 35 218 5z m6869 -326 l21 -18 -31 -185 c-18 -102 -36 -191
-42 -197 -13 -18 -82 -16 -97 2 -9 11 -5 53 20 202 17 103 33 194 35 201 6 18
70 15 94 -5z m-2097 -483 c169 -47 236 -276 119 -411 -118 -139 -336 -111
-423 54 -31 58 -31 165 -1 222 60 113 185 168 305 135z m1628 -66 c118 -19
230 -40 248 -46 50 -15 66 -47 58 -116 -8 -65 -26 -99 -62 -112 -29 -12 -486
61 -542 86 -18 8 -37 26 -43 41 -11 29 -5 90 13 137 12 31 60 57 93 51 11 -3
117 -21 235 -41z"/>
<path d="M9006 5889 c-3 -8 -37 -203 -76 -433 -51 -299 -68 -421 -60 -426 6
-4 50 -13 96 -20 106 -15 155 -4 218 52 53 46 82 117 73 182 -5 35 -230 642
-242 655 -3 2 -7 -2 -9 -10z m173 -664 c0 -11 -8 -39 -19 -63 -26 -58 -87 -86
-157 -75 -46 8 -48 10 -45 38 4 35 70 418 78 455 4 19 21 -15 74 -155 38 -99
69 -189 69 -200z"/>
<path d="M2575 5518 c-70 -24 -111 -98 -85 -149 39 -75 125 -118 256 -126 67
-5 88 -2 126 15 26 11 54 32 63 46 23 34 22 92 -2 125 -56 75 -256 125 -358
89z m216 -93 c58 -20 87 -49 73 -73 -32 -49 -204 -34 -273 24 -34 28 -32 48 7
63 35 14 134 6 193 -14z"/>
<path d="M9322 4390 c-87 -40 -92 -141 -10 -201 87 -62 262 -85 343 -44 54 27
81 81 66 128 -12 36 -50 76 -91 97 -82 43 -236 53 -308 20z m254 -91 c61 -31
77 -54 49 -75 -33 -25 -178 -15 -235 17 -53 29 -65 63 -28 79 41 18 161 6 214
-21z"/>
<path d="M13274 6263 c3 -60 8 -178 11 -263 3 -85 8 -192 11 -237 l6 -83 74 0
74 0 0 31 c0 49 19 516 24 592 l5 67 -106 0 -106 0 7 -107z"/>
<path d="M13320 5602 c-52 -26 -83 -77 -77 -129 6 -56 30 -91 75 -110 104 -43
211 48 183 155 -13 46 -45 79 -92 92 -45 13 -48 13 -89 -8z"/>
<path d="M13700 5104 c-71 -31 -113 -97 -113 -179 0 -90 48 -157 129 -181 125
-36 237 50 237 181 0 53 -26 117 -60 147 -50 46 -131 59 -193 32z m123 -85
c54 -42 57 -139 6 -185 -27 -25 -91 -24 -118 0 -97 88 11 265 112 185z"/>
<path d="M12420 4925 l0 -185 105 0 105 0 0 35 0 35 -60 0 -60 0 0 40 0 40 60
0 60 0 0 35 0 35 -60 0 -60 0 0 40 0 40 60 0 60 0 0 35 0 35 -105 0 -105 0 0
-185z"/>
<path d="M12780 4926 l0 -186 40 0 39 0 3 72 3 72 55 -72 55 -72 53 0 53 0
-61 72 c-33 39 -60 75 -60 79 0 4 11 14 23 22 54 35 59 123 11 168 -23 21 -37
24 -120 27 l-94 4 0 -186z m138 108 c42 -29 23 -84 -30 -84 -27 0 -28 2 -28
50 0 55 15 64 58 34z"/>
<path d="M13190 4926 l0 -186 40 0 39 0 3 73 3 72 55 -72 55 -72 53 0 53 -1
-61 74 -61 73 36 36 c47 47 49 101 6 149 -29 32 -31 33 -125 36 l-96 4 0 -186z
m134 114 c20 -7 26 -17 26 -38 0 -36 -16 -52 -52 -52 -27 0 -28 2 -28 50 0 54
6 59 54 40z"/>
<path d="M14090 4926 l0 -186 40 0 39 0 3 73 3 72 55 -72 55 -72 53 0 53 -1
-61 74 -61 73 36 36 c47 47 49 101 6 149 -29 32 -31 33 -125 36 l-96 4 0 -186z
m134 114 c20 -7 26 -17 26 -38 0 -36 -16 -52 -52 -52 -27 0 -28 2 -28 50 0 54
6 59 54 40z"/>
<path d="M8282 5148 c-17 -17 -15 -46 6 -57 26 -13 228 -45 246 -38 19 8 21
51 4 64 -13 10 -186 43 -224 43 -11 0 -25 -5 -32 -12z"/>
<path d="M7802 4898 c-16 -16 -15 -43 1 -56 7 -6 54 -18 106 -27 102 -17 121
-13 121 31 0 30 -5 32 -102 49 -101 18 -111 18 -126 3z"/>
<path d="M10883 7008 c-17 -22 -342 -553 -347 -568 -4 -10 13 -27 52 -52 32
-21 61 -38 64 -38 4 0 75 93 159 208 84 114 177 239 205 278 l53 72 -84 56
c-47 31 -87 56 -89 56 -2 0 -8 -6 -13 -12z"/>
<path d="M9895 6625 c-74 -40 -108 -95 -109 -175 0 -71 30 -131 86 -167 35
-24 52 -28 108 -28 56 0 73 4 108 28 55 36 86 96 86 167 1 65 -21 108 -77 154
-33 26 -48 31 -105 34 -48 2 -76 -2 -97 -13z"/>
<path d="M10433 6349 c-17 -5 -43 -23 -57 -39 -76 -91 -16 -221 103 -220 81 1
131 49 131 128 0 61 -24 100 -73 123 -46 21 -57 21 -104 8z"/>
<path d="M16485 5641 c-3 -10 -3 -26 1 -35 6 -14 50 -16 484 -16 434 0 478 2
484 16 4 9 4 25 1 35 -6 18 -27 19 -485 19 -458 0 -479 -1 -485 -19z"/>
<path d="M17585 5641 c-3 -10 -3 -26 1 -35 5 -14 25 -16 134 -16 117 0 129 2
135 19 3 10 3 26 -1 35 -5 14 -25 16 -134 16 -117 0 -129 -2 -135 -19z"/>
<path d="M15610 5219 c-55 -25 -105 -71 -133 -124 -22 -40 -22 -45 -25 -717
l-3 -678 -109 0 c-97 0 -109 -2 -115 -19 -14 -45 0 -51 116 -51 l109 0 0 -133
c0 -172 14 -222 80 -287 67 -68 113 -80 312 -80 l158 0 -5 -22 c-2 -13 -26
-171 -51 -352 -45 -320 -46 -330 -28 -343 15 -11 47 -13 164 -7 80 3 148 8
153 11 4 2 7 164 7 359 l0 354 114 0 c111 0 116 -1 165 -31 68 -42 105 -48
319 -49 l182 0 0 -307 c0 -170 4 -313 8 -319 4 -7 65 -14 152 -18 118 -6 149
-4 164 7 19 14 19 19 -22 308 -23 162 -42 301 -42 311 0 15 25 17 253 20 239
3 254 4 299 26 26 13 63 41 83 64 74 81 70 44 70 718 0 674 4 637 -70 718 -20
23 -57 51 -83 64 -47 23 -48 23 -554 26 l-506 3 -4 192 c-3 174 -5 196 -25
232 -28 53 -78 99 -133 124 -43 20 -64 21 -500 21 -436 0 -457 -1 -500 -21z
m980 -79 c22 -11 52 -39 67 -62 28 -41 28 -44 31 -224 l3 -182 -53 -7 c-97
-13 -171 -65 -212 -147 l-26 -52 0 -602 c0 -368 4 -613 10 -628 l10 -26 -371
0 c-287 0 -377 3 -402 13 -44 19 -105 89 -112 129 -3 18 -5 405 -3 859 l3 825
27 42 c55 83 44 81 546 82 425 0 444 -1 482 -20z m1184 -562 c56 -17 110 -74
124 -131 17 -64 17 -1110 0 -1174 -14 -57 -68 -114 -124 -131 -54 -16 -1100
-17 -1157 -1 -47 13 -106 63 -123 106 -21 48 -20 1179 0 1226 18 43 65 85 112
102 54 19 1105 21 1168 3z m-1614 -1768 l0 -320 -85 0 c-61 0 -85 3 -85 13 0
16 81 599 86 615 2 7 20 12 44 12 l40 0 0 -320z m1076 -40 l40 -280 -88 0 -88
0 0 280 0 280 48 0 49 0 39 -280z"/>
<path d="M10863 4793 c-27 -10 -13 -55 35 -107 88 -97 128 -210 116 -333 l-6
-72 27 -7 c36 -9 51 10 59 80 16 122 -45 289 -141 394 -47 49 -62 57 -90 45z"/>
<path d="M10587 4693 c-17 -16 -3 -48 43 -104 90 -109 127 -209 116 -322 -6
-70 2 -97 30 -97 26 0 43 31 49 95 14 126 -37 267 -137 379 -46 52 -81 69
-101 49z"/>
<path d="M712 3808 c-16 -16 -15 -43 2 -57 9 -8 118 -11 381 -9 338 3 369 4
379 21 8 12 8 22 0 35 -10 16 -41 17 -380 20 -279 2 -373 -1 -382 -10z"/>
<path d="M1592 3808 c-6 -6 -12 -20 -12 -29 0 -34 24 -40 165 -37 119 3 139 5
149 21 8 12 8 22 0 35 -10 15 -31 17 -150 20 -100 2 -143 -1 -152 -10z"/>
<path d="M14305 3681 c-3 -10 -3 -26 1 -35 6 -14 46 -16 424 -16 378 0 418 2
424 16 4 9 4 25 1 35 -6 18 -26 19 -425 19 -399 0 -419 -1 -425 -19z"/>
<path d="M4332 3668 c-5 -7 -12 -49 -14 -93 -9 -134 -64 -244 -156 -310 -31
-22 -41 -36 -39 -54 3 -35 30 -48 62 -31 83 45 172 174 200 291 18 77 20 180
3 197 -16 16 -43 15 -56 0z"/>
<path d="M4593 3548 c-6 -7 -13 -49 -16 -93 -9 -135 -63 -244 -155 -310 -34
-25 -41 -35 -39 -60 7 -96 164 25 232 178 41 93 60 258 33 285 -16 16 -43 15
-55 0z"/>
<path d="M1062 3528 c-16 -16 -15 -43 2 -57 9 -8 118 -11 381 -9 338 3 369 4
379 21 8 12 8 22 0 35 -10 16 -41 17 -380 20 -279 2 -373 -1 -382 -10z"/>
<path d="M0 2450 l0 -60 733 0 c698 0 735 1 750 18 23 25 21 58 -3 82 -20 20
-33 20 -750 20 l-730 0 0 -60z"/>
<path d="M18080 2490 c-24 -24 -26 -63 -4 -84 14 -14 116 -16 970 -16 l954 0
0 60 0 60 -950 0 c-937 0 -950 0 -970 -20z"/>
</g>
</svg>
