<?xml version="1.0" encoding="UTF-8"?>
<svg id="Layer_1" data-name="Layer 1" xmlns="http://www.w3.org/2000/svg" viewBox="0 0 1300 250">
  <defs>
    <style>
      .cls-1 {
        letter-spacing: .1em;
      }

      .cls-2 {
        fill: #898989;
        font-family: MyriadPro-Regular, 'Myriad Pro';
        font-size: 180px;
      }

      .cls-3 {
        fill: #427543;
      }

      .cls-4 {
        fill: #4e7448;
      }

      .cls-5 {
        letter-spacing: .1em;
      }
    </style>
  </defs>
  <g>
    <polygon class="cls-3" points="427.49 118.51 405.26 118.51 405.26 82.01 394.77 82.01 394.77 118.51 374.89 118.51 374.89 129 394.77 129 394.77 196.33 405.26 196.33 405.26 129 427.49 129 427.49 118.51"/>
    <path class="cls-3" d="M483.97,184.93c7.57,7.57,16.82,11.4,27.5,11.4,9.85,0,18.58-3.34,25.94-9.92l2.47-2.22v12.14h10.49v-38.59c.06-10.85-3.78-20.2-11.4-27.83-7.57-7.57-16.83-11.41-27.5-11.41s-19.93,3.84-27.5,11.41c-7.57,7.57-11.41,16.82-11.41,27.51s3.84,19.93,11.41,27.5m7.39-47.62c5.51-5.51,12.27-8.3,20.11-8.3s14.54,2.8,20.1,8.3c5.51,5.51,8.31,12.28,8.31,20.12s-2.8,14.54-8.3,20.1c-5.57,5.52-12.34,8.31-20.11,8.31s-14.6-2.8-20.12-8.31c-5.51-5.56-8.3-12.33-8.3-20.1s2.8-14.61,8.31-20.12"/>
    <path class="cls-3" d="M649.53,170.98c5.5,5.5,8.29,12.27,8.29,20.1v5.24h10.5v-5.24c0-10.68-3.84-19.93-11.41-27.51-2.71-2.21-5.45-3.84-8.04-4.76l-3.96-1.4,3.96-1.4c2.58-.91,5.32-2.55,8.15-4.86,7.46-7.47,11.3-16.72,11.3-27.4v-5.25h-10.5v5.25c0,7.83-2.79,14.6-8.3,20.11-5.17,5.17-11.51,7.96-18.83,8.3h-18.34s0-70.16,0-70.16h-10.5v114.32h10.5v-33.66h18.27c7.39,.28,13.73,3.08,18.91,8.31"/>
    <path class="cls-3" d="M797.18,175.35l-8.54-6c-5.45,6.85-10.73,11.35-15.72,13.38-13.54,5.5-25.64,3.61-34.45-4.93l-1.51-1.47,59.2-29.11c-4.46-10.46-9.91-17.87-16.19-22.06-6.54-4.41-13.82-6.64-21.64-6.64-10.68,0-19.94,3.84-27.5,11.41-7.57,7.57-11.41,16.83-11.41,27.5s3.83,19.93,11.41,27.5c7.56,7.57,16.82,11.4,27.5,11.4,6.3,0,12.93-1.51,19.68-4.5,6.35-2.77,12.79-8.31,19.17-16.49m-66.06-9.71c-.79-2.66-1.19-5.42-1.19-8.21,0-7.83,2.8-14.6,8.3-20.11,5.51-5.51,12.28-8.31,20.11-8.31,5.79,0,11.11,1.62,15.83,4.8,2.84,1.93,5.29,4.32,7.28,7.1l1.02,1.42-50.84,24.99-.51-1.68Z"/>
  </g>
  <g>
    <path class="cls-3" d="M118.96,234.48h6.39v-4.42c-9.2-1.31-11.81-5.37-12.05-18.35v-64.37c-.24-15.27-3.87-20.5-16.16-23.28-.28-.07-.47-.32-.47-.61,0-.29,.22-.53,.51-.58,11.53-1.88,16.36-7.76,16.13-19.64V33.57c0-11.2,2.6-15.06,12.05-17.58v-3.99h-7.83c-13.08,0-14.58,1.63-14.58,15.78V97.44c0,10.7-4.04,16.9-13.5,20.66v10.29c11.23,5.09,13.26,9.95,13.5,31.48v62.44c0,10.35,2.39,12.17,16.03,12.17"/>
    <path class="cls-3" d="M330.25,159.88c0-21.19,2.16-26.33,13.5-31.49v-10.29c-9.46-3.76-13.5-9.96-13.5-20.66V27.78c0-14.07-1.36-15.55-14.6-15.78h-8.06v3.98c9.52,2.25,12.29,6.27,12.29,17.59V104.44c0,10.95,5.12,16.81,16.11,18.45,.29,.04,.51,.28,.52,.57,0,.29-.19,.54-.47,.61-12.3,2.79-15.92,8.01-16.16,23.29v64.35c-.24,13-2.9,17.06-12.29,18.36v4.42h6.63c13.4,0,15.79-1.82,16.03-12.19v-62.42Z"/>
  </g>
  <text class="cls-2" transform="translate(824.99 196.33)"><tspan class="cls-5" x="0" y="0">Q</tspan><tspan class="cls-1" x="142.56" y="0">uiz</tspan></text>
  <path class="cls-4" d="M139.87,126.23c1.7,2.28,4.12,3.66,6.69,4.67,2.92,.91,5.56,1.72,8.9,2.13,6.19,1.11,12.98,1.54,19.72,2,13.58,.81,27.53,.84,41.4,.94,13.87-.07,27.82-.12,41.41-.92,6.74-.46,13.53-.89,19.73-2.01,3.35-.4,5.98-1.23,8.9-2.13,2.57-1.02,4.99-2.4,6.68-4.68l.39-.52h1.25v.52c-.06,2.56-1.61,5-3.98,7.01-2.56,1.86-5.5,3.53-8.84,4.71-6.59,2.48-13.8,4.01-21.05,5.21-14.57,2.35-29.55,3.2-44.48,3.32-14.93-.11-29.92-.97-44.48-3.31-7.25-1.19-14.47-2.73-21.06-5.21-3.33-1.18-6.27-2.85-8.84-4.72-2.37-2-3.92-4.45-3.97-7.01v-.52s1.23,0,1.23,0l.39,.52Z"/>
  <path class="cls-4" d="M168.15,79.54c0-5.53,3.9-10.01,8.71-10.01s8.71,4.48,8.71,10.01-3.9,10.01-8.71,10.01-8.71-4.48-8.71-10.01"/>
  <path class="cls-4" d="M247.6,79.54c0-5.53,3.9-10.01,8.71-10.01s8.71,4.48,8.71,10.01-3.9,10.01-8.71,10.01-8.71-4.48-8.71-10.01"/>
</svg>