<?xml version="1.0" encoding="UTF-8"?>
<svg id="Layer_1" data-name="Layer 1" xmlns="http://www.w3.org/2000/svg" viewBox="0 0 1200 600">
  <defs>
    <style>
      .cls-1 {
        letter-spacing: .1em;
      }

      .cls-2 {
        fill: #898989;
        font-family: MyriadPro-Regular, 'Myriad Pro';
        font-size: 245.85px;
      }

      .cls-3 {
        fill: #427543;
      }

      .cls-4 {
        fill: #4e7448;
      }

      .cls-5 {
        letter-spacing: .1em;
      }
    </style>
  </defs>
  <g>
    <polygon class="cls-3" points="92.1 427.25 61.74 427.25 61.74 377.4 47.41 377.4 47.41 427.25 20.26 427.25 20.26 441.58 47.41 441.58 47.41 533.54 61.74 533.54 61.74 441.58 92.1 441.58 92.1 427.25"/>
    <path class="cls-3" d="M169.25,517.97c10.34,10.34,22.98,15.58,37.57,15.58,13.45,0,25.37-4.56,35.43-13.55l3.38-3.03v16.58h14.33v-52.7c.08-14.81-5.17-27.59-15.58-38.01-10.34-10.34-22.99-15.58-37.57-15.58s-27.23,5.24-37.57,15.58c-10.34,10.34-15.58,22.98-15.58,37.57s5.24,27.23,15.58,37.57m10.1-65.04c7.52-7.52,16.76-11.34,27.47-11.34s19.87,3.82,27.46,11.33c7.53,7.53,11.35,16.78,11.35,27.48s-3.82,19.86-11.33,27.45c-7.61,7.54-16.85,11.36-27.47,11.36s-19.94-3.82-27.47-11.35c-7.52-7.6-11.34-16.84-11.34-27.46s3.83-19.96,11.35-27.47"/>
    <path class="cls-3" d="M395.37,498.92c7.52,7.52,11.33,16.76,11.33,27.46v7.16h14.34v-7.16c0-14.59-5.24-27.23-15.58-37.57-3.71-3.01-7.45-5.25-10.98-6.5l-5.41-1.91,5.41-1.91c3.53-1.24,7.27-3.48,11.13-6.64,10.19-10.2,15.43-22.84,15.43-37.42v-7.17h-14.34v7.17c0,10.7-3.81,19.94-11.33,27.47-7.06,7.06-15.72,10.88-25.72,11.33h-25.05s0-95.83,0-95.83h-14.34v156.15h14.34v-45.97h24.95c10.1,.39,18.76,4.21,25.82,11.35"/>
    <path class="cls-3" d="M597.03,504.88l-11.66-8.2c-7.44,9.35-14.66,15.5-21.47,18.28-18.49,7.52-35.02,4.93-47.05-6.73l-2.07-2.01,80.86-39.75c-6.09-14.28-13.54-24.41-22.11-30.13-8.93-6.03-18.87-9.08-29.56-9.08-14.59,0-27.23,5.24-37.57,15.58-10.35,10.35-15.58,22.99-15.58,37.57s5.24,27.23,15.58,37.57c10.33,10.34,22.98,15.58,37.57,15.58,8.61,0,17.66-2.06,26.87-6.14,8.67-3.78,17.47-11.36,26.18-22.52m-90.23-13.27c-1.08-3.63-1.63-7.4-1.63-11.21,0-10.7,3.82-19.94,11.33-27.47,7.53-7.53,16.77-11.35,27.47-11.35,7.9,0,15.18,2.21,21.62,6.56,3.88,2.64,7.22,5.9,9.94,9.7l1.39,1.94-69.44,34.13-.69-2.29Z"/>
  </g>
  <text class="cls-2" transform="translate(635.02 533.54)"><tspan class="cls-5" x="0" y="0">Q</tspan><tspan class="cls-1" x="194.71" y="0">uiz</tspan></text>
  <g>
    <g>
      <path class="cls-3" d="M463.69,338.57h8.72v-6.03c-12.57-1.8-16.12-7.33-16.46-25.06v-87.92c-.33-20.86-5.28-27.99-22.08-31.79-.39-.09-.65-.44-.64-.83,.01-.39,.3-.72,.69-.79,15.75-2.57,22.34-10.6,22.03-26.83V64.15c0-15.3,3.55-20.57,16.46-24.01v-5.45h-10.7c-17.87,0-19.92,2.22-19.92,21.56v95.15c0,14.61-5.52,23.08-18.44,28.21v14.06c15.34,6.96,18.11,13.6,18.44,42.99v85.28c0,14.14,3.27,16.62,21.89,16.62"/>
      <path class="cls-3" d="M752.28,236.67c0-28.94,2.95-35.97,18.44-43.01v-14.05c-12.92-5.13-18.44-13.6-18.44-28.21V56.25c0-19.22-1.86-21.24-19.94-21.56h-11.01v5.43c13.01,3.07,16.79,8.56,16.79,24.03v96.8c0,14.95,7,22.96,22.01,25.2,.39,.05,.69,.38,.71,.78,.01,.39-.26,.74-.64,.83-16.8,3.81-21.75,10.94-22.08,31.81v87.89c-.33,17.76-3.97,23.3-16.79,25.08v6.03h9.06c18.3,0,21.57-2.49,21.89-16.65v-85.25Z"/>
    </g>
    <path class="cls-4" d="M493.39,190.69c2.3,3.1,5.59,4.97,9.09,6.35,3.97,1.23,7.55,2.34,12.1,2.89,8.41,1.51,17.64,2.09,26.79,2.72,18.45,1.1,37.4,1.14,56.24,1.28,18.84-.1,37.79-.16,56.25-1.24,9.15-.63,18.39-1.21,26.81-2.73,4.55-.55,8.12-1.67,12.09-2.9,3.5-1.39,6.78-3.25,9.07-6.36l.53-.71h1.69v.71c-.08,3.48-2.18,6.79-5.4,9.52-3.48,2.53-7.47,4.8-12,6.4-8.95,3.37-18.75,5.45-28.6,7.07-19.79,3.2-40.15,4.34-60.43,4.51-20.29-.16-40.64-1.31-60.43-4.5-9.85-1.62-19.66-3.7-28.6-7.07-4.53-1.61-8.52-3.88-12-6.41-3.22-2.72-5.33-6.04-5.39-9.52v-.71s1.68,0,1.68,0l.53,.71Z"/>
    <path class="cls-4" d="M531.81,127.26c0-7.51,5.3-13.6,11.83-13.6s11.84,6.08,11.84,13.6-5.3,13.6-11.84,13.6-11.83-6.09-11.83-13.6"/>
    <path class="cls-4" d="M639.74,127.26c0-7.51,5.29-13.6,11.83-13.6s11.84,6.08,11.84,13.6-5.3,13.6-11.84,13.6-11.83-6.09-11.83-13.6"/>
  </g>
</svg>